<?xml version="1.0" encoding="utf-8"?><svg version="1.1" id="Layer_1" xmlns="http://www.w3.org/2000/svg"
	xmlns:xlink="http://www.w3.org/1999/xlink" x="0px" y="0px" viewBox="0 0 122.88 88.08"
	style="enable-background: new 0 0 122.88 88.08" xml:space="preserve">
	<style type="text/css">
		<![CDATA[
		.st0 {
			fill-rule: evenodd;
			fill: #fff;
			clip-rule: evenodd;
		}
		]]>
	</style>
	<g>
		<path class="st0"
			d="M 83.1 33 l -0.3 -11.2 l -18.4 5.3 c -1.7 0.4 -3.3 0.5 -4.9 0.5 c -1.7 0 -3.4 -0.2 -5.1 -0.5 l -17.6 -5.4 v 11.4 c 0.5 5.9 17.4 7.7 22.6 8 c 4.2 0.2 20.6 -2 22.8 -5.4 C 82.7 35 83 34.1 83.1 33 L 83.1 33 z M 2.5 83 h 12.6 c -0.9 -0.2 -1.6 -1.1 -1.6 -2.1 v -55.7 c 0 -1.2 1 -2.2 2.2 -2.2 h 9.7 c -0.3 1.1 -0.5 2.2 -0.5 3.4 h -7.7 l 0 0 v 53.9 h 88.2 V 26.4 h -7.4 c 0 -1.2 -0.2 -2.3 -0.5 -3.4 h 9.2 c 1.2 0 2.2 1 2.2 2.2 V 80.9 c 0 1 -0.7 1.9 -1.6 2.1 h 13.2 c 1.4 0 2.5 1.1 2.5 2.5 l 0 0 c 0 1.4 -1.1 2.5 -2.5 2.5 H 2.5 c -1.4 0 -2.5 -1.1 -2.5 -2.5 l 0 0 C 0 84.2 1.1 83 2.5 83 L 2.5 83 L 2.5 83 z M 27.1 70.7 c -0.8 0 -1.5 -0.7 -1.5 -1.5 s 0.7 -1.5 1.5 -1.5 h 57.4 c 0.8 0 1.5 0.7 1.5 1.5 s -0.7 1.5 -1.5 1.5 H 27.1 L 27.1 70.7 z M 27.1 61.9 c -0.8 0 -1.5 -0.7 -1.5 -1.5 s 0.7 -1.5 1.5 -1.5 h 43.9 c 0.8 0 1.5 0.7 1.5 1.5 s -0.7 1.5 -1.5 1.5 H 27.1 L 27.1 61.9 z M 27.1 53.1 c -0.8 0 -1.5 -0.7 -1.5 -1.5 s 0.7 -1.5 1.5 -1.5 h 57.8 c 0.8 0 1.5 0.7 1.5 1.5 s -0.7 1.5 -1.5 1.5 H 27.1 L 27.1 53.1 z M 57.9 84 h 7.1 c 0.7 0 1.2 0.6 1.2 1.2 l 0 0 c 0 0.7 -0.6 1.2 -1.2 1.2 h -7.1 c -0.7 0 -1.2 -0.6 -1.2 -1.2 l 0 0 C 56.6 84.5 57.2 84 57.9 84 L 57.9 84 L 57.9 84 z M 90.6 13.7 v 13.7 H 91 c 0.3 0 0.5 0.2 0.5 0.5 v 3.7 c 0 0.3 -0.2 0.5 -0.5 0.5 h -0.4 v 1.3 c 0.6 0.1 1 0.6 1 1.2 v 0 c 0 0.7 -0.5 1.2 -1.2 1.2 h -2.1 c -0.7 0 -1.2 -0.5 -1.2 -1.2 v 0 c 0 -0.6 0.4 -1.1 1 -1.2 v -1.3 h -0.4 c -0.3 0 -0.5 -0.2 -0.5 -0.5 v -3.7 c 0 -0.3 0.2 -0.5 0.5 -0.5 H 88 v -12.9 l -22.4 7 c -4.1 1 -8.1 1 -12.2 0 l -24.7 -7.4 l -2.2 -0.7 c -2.8 -1.1 -2.1 -3.8 0.5 -4.4 l 28 -8.4 c 2.9 -0.8 5.8 -0.9 8.7 0 l 27.5 8.3 c 3 0.7 3.6 3.5 0.1 4.6 L 90.6 13.7 L 90.6 13.7 z" />
	</g>
</svg>