<?xml version="1.0" encoding="iso-8859-1"?>
<!-- Generator: Adobe Illustrator 19.0.0, SVG Export Plug-In . SVG Version: 6.00 Build 0)  -->
<svg version="1.1" id="Capa_1" xmlns="http://www.w3.org/2000/svg" xmlns:xlink="http://www.w3.org/1999/xlink" x="0px" y="0px"
	 viewBox="0 0 512 512" style="enable-background:new 0 0 512 512;" xml:space="preserve">
<path style="fill:#AAE6FF;" d="M306.022,261.98v37.063l90.352,21.387c45.901,10.865,78.318,51.851,78.318,99.02V502H37.309v-82.612
	c0-47.141,32.379-88.11,78.245-99.003l89.87-21.343v-36.9L306.022,261.98z"/>
<g>
	<path style="fill:#FF5A5A;" d="M119.995,417.5L119.995,417.5V502h38.244l-0.548-9.301
		C155.974,463.523,142.344,436.334,119.995,417.5z"/>
	<path style="fill:#FF5A5A;" d="M391.995,417.5L391.995,417.5V502h-38.244l0.547-9.301
		C356.016,463.523,369.646,436.334,391.995,417.5z"/>
</g>
<g>
	<rect x="37.311" y="462" style="fill:#FAE196;" width="82.69" height="40"/>
	<rect x="391.991" y="462" style="fill:#FAE196;" width="82.69" height="40"/>
	<path style="fill:#FAE196;" d="M166.781,194.176h-8c-13.255,0-24-10.745-24-24l0,0c0-13.255,10.745-24,24-24h8"/>
	<path style="fill:#FAE196;" d="M345.221,194.176h8c13.255,0,24-10.745,24-24l0,0c0-13.255-10.745-24-24-24h-8"/>
	<path style="fill:#FAE196;" d="M166.781,194.176h-8c-13.255,0-24-10.745-24-24l0,0c0-13.255,10.745-24,24-24h8V194.176z"/>
	<path style="fill:#FAE196;" d="M345.221,194.176h8c13.255,0,24-10.745,24-24l0,0c0-13.255-10.745-24-24-24h-8V194.176z"/>
</g>
<path style="fill:#FF5A5A;" d="M374.232,126.089L374.232,126.089C374.232,61.975,322.257,10,258.143,10h-4.284
	C189.745,10,137.77,61.975,137.77,126.089l0,0c0,10.996,8.914,19.911,19.911,19.911h196.64
	C365.317,146,374.232,137.086,374.232,126.089z"/>
<g>
	<path style="fill:#BEBEBE;" d="M314.159,24.392l-13.482,56.956c-1.044,4.412,4.061,7.669,7.621,4.862l40.847-32.202L314.159,24.392
		z"/>
	<path style="fill:#BEBEBE;" d="M197.97,24.392l13.482,56.956c1.044,4.412-4.061,7.669-7.621,4.862l-40.847-32.202L197.97,24.392z"
		/>
</g>
<g>
	<path style="fill:#FAE196;" d="M205.424,305.691l0.939,0.606c30.316,19.57,69.264,19.649,99.659,0.203l0,0v-38.92l-100.598,0.164
		V305.691z"/>
	<path style="fill:#FAE196;" d="M345.221,146v56.221c0,38.351-31.089,69.44-69.44,69.44h-39.559c-38.351,0-69.44-31.089-69.44-69.44
		V146H345.221z"/>
</g>
<path style="fill:#78D2FA;" d="M256.001,146h-89.22v21.96c0,8.926,3.653,17.463,10.11,23.625l0,0
	c6.075,5.798,14.149,9.032,22.547,9.032h29.51c7.501,0,14.393-4.128,17.933-10.741l0,0c1.8-3.363,5.305-5.462,9.12-5.462l0,0l0,0
	c3.815,0,7.32,2.099,9.12,5.462l0,0c3.54,6.613,10.432,10.741,17.933,10.741h29.43c8.391,0,16.462-3.222,22.546-9.001l0,0
	c6.507-6.181,10.191-14.761,10.191-23.735V146H256.001z"/>
<path d="M477.493,379.957c-1.952-5.167-7.729-7.771-12.89-5.819c-5.167,1.953-7.771,7.724-5.819,12.89
	c3.921,10.372,5.908,21.28,5.908,32.422V452h-62.697v-60c0-5.522-4.478-10-10-10s-10,4.478-10,10v21.542l-5.597,5.963
	C357.641,439.492,346.399,464.93,344.17,492h-78.042v-92.304c0-5.522-4.478-10-10-10s-10,4.478-10,10V492h-78.309
	c-2.229-27.069-13.47-52.508-32.228-72.495l-5.597-5.963V392c0-5.522-4.478-10-10-10s-10,4.478-10,10v60H47.31v-32.611
	c0-42.697,29.013-79.408,70.555-89.273l79.432-18.864c16.131,14.603,36.817,22.594,58.732,22.594
	c21.86,0,42.494-7.955,58.608-22.487l79.436,18.802c4.81,1.138,9.555,2.673,14.104,4.562c1.254,0.52,2.552,0.767,3.83,0.767
	c3.921-0.001,7.643-2.322,9.24-6.169c2.117-5.101-0.302-10.952-5.402-13.07c-5.538-2.299-11.313-4.166-17.165-5.552l-82.656-19.564
	v-20.46c22.923-13.528,38.481-38.226,39.15-66.557c17.842-1.015,32.048-15.848,32.048-33.94c0-9.546-3.96-18.18-10.316-24.361
	c4.634-5.27,7.454-12.173,7.454-19.726C384.358,56.563,327.795,0,258.27,0h-4.283c-69.526,0-126.09,56.563-126.09,126.089
	c0,7.49,2.773,14.34,7.339,19.593c-6.438,6.19-10.456,14.879-10.456,24.494c0,18.093,14.206,32.925,32.048,33.94
	c0.664,28.104,15.974,52.641,38.595,66.238v20.786l-82.181,19.517c-24.362,5.786-46.33,19.792-61.856,39.438
	C35.86,369.74,27.309,394.35,27.309,419.39V502c0,5.522,4.478,10,10,10h437.383c5.522,0,10-4.478,10-10v-82.551
	C484.692,405.883,482.271,392.596,477.493,379.957z M176.781,156h37.647l-29.411,29.411c-0.414-0.343-0.829-0.685-1.222-1.06
	c-4.458-4.256-7.015-10.229-7.015-16.392V156H176.781z M242.363,156.351c0.113-0.113,0.211-0.234,0.317-0.351h59.816l-28.778,28.779
	c-3.605-6.401-10.348-10.365-17.717-10.365c-7.515,0-14.387,4.115-17.937,10.742c-1.803,3.368-5.296,5.461-9.116,5.461h-20.852
	L242.363,156.351z M330.431,156.351c0.113-0.113,0.211-0.234,0.317-0.351h4.473v11.881c0,6.203-2.58,12.212-7.077,16.484
	c-4.245,4.031-9.806,6.252-15.659,6.252h-16.319L330.431,156.351z M355.221,184.016v-16.135v-11.545c6.773,0.976,12,6.801,12,13.84
	S361.994,183.04,355.221,184.016z M334.739,52.631l-20.884,16.465l6.806-28.755C325.707,44.024,330.419,48.137,334.739,52.631z
	 M191.487,40.421l6.788,28.676l-20.813-16.409C181.765,48.203,186.46,44.098,191.487,40.421z M165.027,68.353l32.612,25.709
	c2.707,2.135,5.912,3.215,9.135,3.215c2.743,0,5.498-0.782,7.972-2.36c5.381-3.432,7.907-9.662,6.438-15.872l-11.661-49.264
	c11.241-5.211,23.539-8.514,36.479-9.482V91c0,5.522,4.478,10,10,10s10-4.478,10-10V20.283c12.989,0.94,25.335,4.23,36.619,9.445
	l-11.672,49.316c-1.471,6.211,1.056,12.441,6.437,15.873c2.474,1.578,5.229,2.36,7.972,2.36c3.223,0,6.428-1.08,9.135-3.214
	l32.696-25.776c10.854,16.64,17.172,36.495,17.172,57.802c0,5.465-4.445,9.911-9.91,9.911h-9.228H166.781h-8.974
	c-5.465,0-9.91-4.446-9.91-9.911C147.897,104.811,154.199,84.979,165.027,68.353z M144.781,170.176c0-7.039,5.227-12.865,12-13.84
	v11.625v16.056C150.008,183.04,144.781,177.215,144.781,170.176z M176.829,204.132c6.727,4.216,14.515,6.485,22.609,6.485h29.51
	c11.209,0,21.459-6.14,26.748-16.02c0.121-0.227,0.489-0.225,0.608-0.002c5.29,9.882,15.54,16.021,26.749,16.021h29.431
	c8.122,0,15.94-2.281,22.688-6.52c-0.629,20.15-11.328,37.796-27.23,48.071c-0.317,0.209-5.915,3.685-10.968,5.573
	c-6.588,2.524-13.73,3.92-21.195,3.92H236.22c-7.763,0-15.175-1.511-21.979-4.23c-1.076-0.204-8.897-4.387-10.084-5.199
	C188.211,241.972,177.471,224.31,176.829,204.132z M236.221,281.661h39.559c6.994,0,13.776-0.917,20.242-2.623v20.004
	c0,0.552,0.048,1.094,0.135,1.624c-11.555,8.554-25.487,13.179-40.129,13.179c-14.881,0-29.021-4.783-40.685-13.606
	c0.047-0.394,0.08-0.792,0.08-1.197V278.88C222.057,280.682,229.026,281.661,236.221,281.661z M381.995,444.228V492h-17.742
	C365.96,474.754,372.058,458.352,381.995,444.228z M147.736,492h-17.741v-47.772C139.932,458.352,146.029,474.754,147.736,492z
	 M47.31,472h62.686v20H47.31V472z M401.995,492v-20h62.697v20H401.995z"/>
<path d="M439.945,356.767c1.969,2.102,4.631,3.163,7.3,3.163c2.45,0,4.905-0.895,6.835-2.702c4.03-3.775,4.237-10.104,0.461-14.135
	c-0.255-0.271-0.511-0.543-0.769-0.813c-3.819-3.993-10.147-4.133-14.139-0.316s-4.134,10.146-0.316,14.139L439.945,356.767z"/>
<path d="M249.061,353.93c-1.87,1.86-2.93,4.44-2.93,7.07s1.06,5.21,2.93,7.069c1.86,1.86,4.44,2.931,7.07,2.931
	s5.21-1.07,7.07-2.931c1.859-1.859,2.93-4.439,2.93-7.069s-1.07-5.21-2.93-7.07c-1.86-1.86-4.44-2.93-7.07-2.93
	C253.491,351,250.921,352.069,249.061,353.93z"/>
<g>
</g>
<g>
</g>
<g>
</g>
<g>
</g>
<g>
</g>
<g>
</g>
<g>
</g>
<g>
</g>
<g>
</g>
<g>
</g>
<g>
</g>
<g>
</g>
<g>
</g>
<g>
</g>
<g>
</g>
</svg>
