<?xml version="1.0" encoding="utf-8"?>
<svg viewBox="84.592 118.761 481.423 429.145" xmlns="http://www.w3.org/2000/svg">
  <g transform="matrix(1.333333, 0, 0, -1.333333, 0, 666.666697)" id="g10">
    <g transform="scale(0.1)" id="g12">
      <g transform="scale(10)" id="g16">
        <text id="text20" style="font-style: italic; font-variant: normal; font-weight: 900; font-size: 53px; font-family: SinkinSans; writing-mode: lr-tb; fill: rgb(243, 96, 30); fill-opacity: 1; fill-rule: nonzero; stroke: none; white-space: pre;" transform="matrix(1,0,0,-1,65.6785,135.38)"><tspan id="tspan18" y="0" x="0 49.979 102.184 149.778">ROCK</tspan></text>
      </g>
      <g transform="scale(10)" id="g22">
        <text id="text26" style="font-style: italic; font-variant: normal; font-weight: 900; font-size: 53px; font-family: SinkinSans; writing-mode: lr-tb; fill: rgb(26, 24, 23); fill-opacity: 1; fill-rule: nonzero; stroke: none; white-space: pre;" transform="matrix(1,0,0,-1,266.652,135.38)"><tspan id="tspan24" y="0" x="0 49.978489 71.549484 121.36878">RIDE</tspan></text>
      </g>
      <path id="path28" style="fill:#1a1817;fill-opacity:1;fill-rule:nonzero;stroke:none" d="M 3573.42,890.699 H 1357.25 l 69.33,278.521 h 2216.17 l -69.33,-278.521"/>
      <g transform="scale(10)" id="g30">
        <text id="text34" style="font-style: italic; font-variant: normal; font-weight: 900; font-size: 15.6422px; font-family: SinkinSans; writing-mode: lr-tb; fill: rgb(255, 255, 255); fill-opacity: 1; fill-rule: nonzero; stroke: none; white-space: pre;" transform="matrix(1,0,0,-1,151.855,97.002)"><tspan id="tspan32" y="0" x="0 19.552704 37.462914 55.185604 72.719803 86.532303 105.1466 114.01572 131.54993 138.85461 156.10851 164.97763 182.18375">MOUNTAIN RIDE</tspan></text>
      </g>
      <path id="path36" style="fill:#1a1817;fill-opacity:1;fill-rule:nonzero;stroke:none" d="m 1950.13,3668.26 c -1.56,-0.32 -2.51,-0.52 -2.51,-0.52 0.77,0.29 1.62,0.44 2.51,0.52"/>
      <path id="path38" style="fill:#1a1817;fill-opacity:1;fill-rule:nonzero;stroke:none" d="m 2118.65,2569.68 -55.25,-108.6 116.59,45.84 c -11.25,29.7 -36.16,52.94 -61.34,62.76"/>
      <path id="path40" style="fill:#1a1817;fill-opacity:1;fill-rule:nonzero;stroke:none" d="m 2125.84,2742.86 -28.23,24.22 -8.44,-24.78 c 19.29,-8.24 26.81,-13.62 26.81,-13.62 l 9.86,14.18"/>
      <path id="path42" style="fill:#1a1817;fill-opacity:1;fill-rule:nonzero;stroke:none" d="m 2131.08,2842.07 34.85,-27.37 42.83,48.47 z"/>
      <path id="path44" style="fill:#1a1817;fill-opacity:1;fill-rule:nonzero;stroke:none" d="m 3212.35,3151.97 c -48.9,38.26 -110.51,59.95 -172.05,58.59 -30.74,-0.47 -60.92,-7.05 -89.54,-17.07 -28.39,-10.84 -54.75,-26.49 -77.38,-46.18 24.43,17.38 51.49,30.6 79.79,39.1 28.45,8.08 57.79,12.15 87.03,11.29 58.5,-1.92 115.25,-24.41 159.43,-61.33 44.67,-36.76 74.54,-89.19 86.92,-145.05 5.67,-28.09 6.69,-57.01 3.05,-85.36 -3.59,-28.31 -11.57,-56.29 -24.69,-81.79 -12.92,-25.57 -30.08,-48.96 -50.6,-68.93 -20.44,-20 -44.09,-37.08 -70.35,-48.84 -26.14,-11.98 -54.21,-19.71 -82.86,-22.96 -28.68,-3.41 -57.93,-0.91 -86.07,5.7 -28.14,6.79 -55.29,18.07 -80.01,33.56 -24.84,15.37 -46.44,35.7 -64.84,58.49 -18.27,22.96 -32.84,49.03 -42.79,76.98 -9.74,27.98 -15.09,57.67 -15.35,87.65 -1.91,-29.9 1.32,-60.36 9.97,-89.36 8.65,-29.03 22.19,-56.67 39.91,-81.51 35.25,-50.02 89.21,-86.63 148.89,-102.48 29.82,-7.87 61.12,-11.39 92.09,-8.58 30.97,2.65 61.36,10.71 89.87,23.15 57.29,24.93 104.54,71.08 132.88,126.69 14.44,27.75 23.37,58.23 27.47,89.19 3.93,31.03 2.46,62.67 -3.93,93.25 -13.49,60.98 -47.94,117.24 -96.84,155.8"/>
      <path id="path46" style="fill:#1a1817;fill-opacity:1;fill-rule:nonzero;stroke:none" d="m 2068.53,2143.26 c -9.42,-3.73 -18.94,-7.11 -28.7,-9.69 -9.81,-2.31 -19.63,-4.46 -29.41,-6.52 l -14.91,-1.79 c -4.96,-0.57 -9.89,-1.39 -14.9,-1.27 -9.98,-0.08 -19.92,-0.78 -29.83,0.28 l -14.85,0.95 -14.68,2.42 c -9.86,1.17 -19.34,4.25 -28.9,6.69 -4.84,1.04 -9.38,3.08 -14.04,4.7 l -13.94,4.98 -13.4,6.3 c -4.48,2.09 -9.02,4.04 -13.17,6.74 -34.21,19.51 -64.61,45.98 -87.23,78.33 -22.17,32.57 -37.22,70.13 -43.47,109.27 l -1.28,7.33 c -0.35,2.45 -0.39,4.94 -0.6,7.41 l -1.06,14.85 c -0.61,4.95 0.09,9.92 0.05,14.88 0.14,4.97 0.08,9.96 0.36,14.92 2.04,19.77 4.99,39.68 11.48,58.67 1.59,4.75 2.91,9.61 4.71,14.28 l 5.85,13.89 2.91,6.98 c 1.08,2.27 2.35,4.44 3.51,6.68 l 7.14,13.35 c 2.32,4.49 5.47,8.48 8.16,12.76 2.89,4.14 5.41,8.59 8.61,12.51 l 9.55,11.85 4.78,5.97 5.32,5.47 c 27.97,29.64 62.81,53.27 101.74,68.76 -40.64,-10.08 -79.16,-30.66 -111.02,-59.27 -32.19,-28.35 -56.78,-65.44 -71.96,-106.12 -8.01,-20.25 -12.38,-41.73 -15.63,-63.35 -0.82,-10.86 -1.95,-21.82 -1.77,-32.76 l 0.66,-16.42 c 0.16,-2.74 0.14,-5.49 0.45,-8.22 l 1.15,-8.14 2.32,-16.3 c 0.8,-5.44 2.47,-10.69 3.67,-16.05 1.38,-5.31 2.51,-10.7 4.1,-15.95 l 5.53,-15.54 c 7.33,-20.78 18.3,-40.07 30.22,-58.59 24.87,-36.44 58.62,-66.77 97.42,-87.68 38.5,-21.65 82.74,-31.87 126.43,-32.69 43.8,-0.45 87.48,9.76 125.68,29.85 38.27,19.85 71.19,49.18 94.08,84.37 -29.01,-30.27 -63.49,-54.04 -101.13,-69.09"/>
      <path id="path48" style="fill:#1a1817;fill-opacity:1;fill-rule:nonzero;stroke:none" d="m 2973.53,2857.96 c 7.67,-6.61 16.36,-12.04 25.65,-16.34 9.38,-4.12 19.41,-6.73 29.67,-8.03 10.27,-1.11 20.71,-0.66 30.96,1.13 10.17,2.16 20.07,5.58 29.37,10.39 9.16,5.01 17.75,11.17 25.13,18.65 7.26,7.57 13.49,16.08 18.5,25.32 4.8,9.34 8.25,19.35 10.21,29.67 1.82,10.35 2.02,20.92 0.96,31.35 -1.26,10.43 -4.33,20.51 -8.41,30.1 -4.49,9.4 -9.91,18.39 -16.87,26.13 -7.02,7.64 -14.99,14.31 -23.73,19.74 -8.92,5.14 -18.45,8.99 -28.28,11.54 -9.91,2.28 -20.06,3 -30.04,2.42 -9.99,-0.8 -19.68,-3.3 -28.79,-6.85 9.63,1.9 19.29,2.87 28.85,2.4 9.55,-0.64 18.91,-2.41 27.8,-5.45 8.86,-3.17 17.19,-7.49 24.8,-12.78 7.54,-5.4 14.24,-11.81 20,-18.93 5.58,-7.28 10.19,-15.19 13.74,-23.58 3.29,-8.5 5.36,-17.38 6.45,-26.36 0.77,-9.01 0.49,-18.09 -1.18,-26.98 -1.89,-8.83 -4.82,-17.4 -8.79,-25.53 -4.24,-7.99 -9.52,-15.39 -15.7,-22 -6.35,-6.46 -13.57,-11.99 -21.34,-16.67 -7.93,-4.43 -16.49,-7.72 -25.36,-9.95 -8.93,-1.88 -18.09,-2.96 -27.31,-2.45 -9.18,0.67 -18.29,2.51 -27.12,5.48 -8.75,3.21 -17.04,7.68 -24.79,13.07 -7.65,5.54 -14.36,12.32 -20.42,19.75 -5.84,7.62 -10.57,16.11 -14.43,25.12 2.46,-9.46 6.01,-18.78 11.17,-27.35 5.23,-8.49 11.77,-16.24 19.3,-23.01"/>
      <path id="path50" style="fill:#1a1817;fill-opacity:1;fill-rule:nonzero;stroke:none" d="m 3128.07,2653.54 c -157.05,-49.73 -325.28,37.58 -374.99,194.63 -24.7,77.99 -15.57,158.72 19.09,226.34 l 216.51,-139.53 c 0.27,-3.84 0.93,-7.7 2.14,-11.53 8.23,-25.99 35.98,-40.39 61.96,-32.17 26,8.24 40.39,35.98 32.17,61.97 -8.23,25.99 -35.98,40.39 -61.96,32.16 -5.69,-1.8 -10.79,-4.58 -15.26,-8.03 -26.87,18.37 -118.86,81.22 -207.63,141.5 36.02,47.59 86.5,84.93 147.61,104.28 157.05,49.72 325.26,-37.59 374.99,-194.63 49.72,-157.06 -37.59,-325.27 -194.63,-374.99 z m -681.71,28.87 c -19.82,-10.93 -62.98,-58.34 -62.98,-58.34 0.59,16.48 45.37,77.19 45.37,77.19 0,0 -5.41,13.42 -23.71,56.5 -18.29,43.08 -19.58,282.37 -19.58,282.37 23.25,55.17 56.61,78.43 53.48,33.22 -3.15,-45.21 7.42,-390.94 7.42,-390.94 z m -11.98,-240.44 -102.95,-65.85 c 0.04,3.91 0,7.82 -0.09,11.74 l 4.46,2.09 c 1.09,0.51 1.77,1.62 1.71,2.83 l -0.3,6.91 c -0.06,1.2 -0.83,2.25 -1.97,2.66 l -4.6,1.67 c -0.37,5.41 -0.82,10.83 -1.41,16.25 l 4.21,2.44 c 1.04,0.61 1.62,1.78 1.46,2.97 l -0.92,6.86 c -0.15,1.19 -1.01,2.18 -2.17,2.48 l -4.67,1.25 c -0.83,5.36 -1.84,10.71 -2.91,16.07 l 4,2.82 c 0.98,0.69 1.46,1.9 1.19,3.08 l -1.5,6.75 c -0.26,1.17 -1.21,2.07 -2.39,2.29 l -4.89,0.84 c -1.28,5.24 -2.71,10.46 -4.24,15.68 l 0.95,0.81 40.54,14.74 c 13.89,-31.87 43.44,-53.03 76.49,-57.38 z m -130.2,87.55 h -4.39 c -2.2,4.99 -4.46,9.95 -6.87,14.82 l 3.11,3.7 c 0.77,0.92 0.9,2.22 0.35,3.29 l -3.21,6.13 c -0.55,1.07 -1.7,1.69 -2.9,1.58 l -4.85,-0.43 c -2.63,4.79 -5.38,9.47 -8.19,14.1 l 2.8,4.03 c 0.69,0.98 0.71,2.29 0.07,3.3 l -3.72,5.83 c -0.65,1.01 -1.85,1.54 -3.03,1.33 l -4.85,-0.86 c -3.04,4.51 -6.16,8.95 -9.37,13.3 l 2.47,4.3 c 0.6,1.04 0.51,2.34 -0.22,3.3 l -4.21,5.47 c -0.74,0.96 -1.97,1.38 -3.14,1.06 l -4.79,-1.28 c -3.41,4.22 -6.89,8.37 -10.46,12.42 l 2.09,4.51 c 0.51,1.09 0.3,2.38 -0.51,3.27 l -4.68,5.09 c -0.81,0.89 -2.08,1.19 -3.21,0.78 l -4.67,-1.7 c -3.76,3.91 -7.58,7.74 -11.5,11.47 l 1.7,4.68 c 0.41,1.13 0.1,2.4 -0.79,3.21 l -5.11,4.66 c -0.89,0.81 -2.18,1.01 -3.26,0.5 l -4.49,-2.1 c -4.09,3.56 -8.26,7 -12.48,10.37 l 1.28,4.86 c 0.32,1.16 -0.1,2.39 -1.06,3.13 l -5.49,4.2 c -0.96,0.73 -2.26,0.81 -3.3,0.21 l -4.39,-2.54 c -4.35,3.17 -8.78,6.23 -13.26,9.21 l 0.88,5.04 c 0.21,1.19 -0.32,2.38 -1.33,3.02 l -4.48,2.84 11.75,20.66 180.55,-157.24 c -1.46,-5.49 -2.47,-11.11 -2.94,-16.83 z m -141.32,-261.23 c -3.05,3.97 -7.98,6.11 -13.04,5.49 l -96.14,87.02 c 1.81,9.22 2.3,18.77 1.29,28.39 l 192.2,69.9 c 12.4,-44.66 13.93,-89.95 6.07,-132.99 z m -113.32,-173.83 c -157.05,-49.72 -325.26,37.59 -374.99,194.64 -49.73,157.04 37.59,325.26 194.64,374.99 76.72,24.29 156.07,15.8 223.01,-17.47 L 1991.59,2469.7 c -19.08,6.81 -40.43,7.78 -61.23,1.19 -50.6,-16.02 -78.63,-70.03 -62.62,-120.63 16.03,-50.59 70.03,-78.63 120.63,-62.6 27.16,8.59 47.72,28.18 58.55,52.26 l 90.46,-81.88 c 0.11,-0.91 0.29,-1.82 0.58,-2.73 2.37,-7.52 10.4,-11.69 17.92,-9.3 6.91,2.18 10.93,9.15 9.69,16.1 l 85.84,54.91 C 2229.58,2215.46 2155.46,2128 2049.54,2094.46 Z m 71.7,535.74 c 46.99,-30.26 85.7,-73.78 109.98,-127.22 l -192.26,-69.91 c -5.18,7.65 -11.37,14.41 -18.34,20.17 z m -28.23,221.22 153.73,40.45 -77.99,-106.41 z m -156.06,135.92 48.23,81.41 c 44.65,-39.19 90.22,-79.79 100.99,-91.57 22.55,-24.67 26.75,-40.4 28.64,-39.03 1.9,1.38 102.51,19.27 102.51,19.27 0,0 -14.08,59.15 -27.12,69.76 -10.15,8.24 -121.62,59.47 -170.95,81.96 51.17,-15.86 146.84,-45.62 151.8,-47.88 6.8,-3.08 45.31,-8.92 53.18,-33.77 1.87,-5.94 10.65,-36.17 22.91,-78.71 l -208.84,-49.71 z m 398.67,-347.21 -131.54,114.56 71,96.86 c 20.68,-72.12 43.61,-152.24 60.54,-211.42 z m -402.21,613.71 81.88,60.07 -32.48,-10.29 -48.12,-15.24 62.72,52.44 c 0,0 -49.68,9.87 -73.8,7.67 -24.12,-2.21 -28.26,18.2 -28.26,18.2 l 76.84,10.83 c 22.75,-1.6 54.71,-2.98 88.2,-1.63 63.18,2.55 79.88,50.89 79.88,50.89 -79.32,20.85 -122.44,81.67 -122.44,81.67 62.93,-60.95 200.86,-81.28 216.96,-84.32 16.09,-3.06 46.36,-30.7 77.01,-57.66 25.5,-22.42 49.28,-17.99 56.56,-15.86 -9.4,-4.85 -23.79,-32.52 -23.79,-32.52 l 94.29,-64.4 -61.78,-117.3 c -0.97,39.84 -31.6,90.64 -63.96,108.32 -32.37,17.68 -230.08,109.26 -230.08,109.26 0,0 104.91,-68.59 186.35,-112.63 81.43,-44.04 76.55,-65.36 81.24,-80.17 4.68,-14.8 19.85,-345.7 19.85,-345.7 -61.17,49.87 -95.27,161.25 -95.27,161.25 7.03,-57.12 51.03,-151.99 51.03,-151.99 -81.49,86.49 -91.93,231.54 -64.46,319.37 0,0 -175.71,12.24 -194.35,17.2 0,0 96.12,14.92 133.67,38.45 0,0 -100.69,-7.84 -119.81,-3.81 0,0 55.96,19.27 70.13,28.42 0,0 -88.55,-16.79 -99.96,-10.13 l 104.37,46.43 -114.96,-3.82 52.75,27.56 -48.5,-6.05 z m 256.47,707.99 90.88,-63.06 -0.21,0.05 c 0,0 62.4,-50.06 79.39,-63.29 16.98,-13.24 9.29,-23.83 9.29,-23.83 l -67.98,29.1 46.58,-51.58 c 0,0 -84.12,49.98 -123.8,84.14 -18.9,16.28 -33.21,50.72 -34.15,88.47 z m 1217.05,-1098.48 -4.07,2.85 c 1.06,5.3 1.97,10.64 2.79,16 l 4.81,1.3 c 1.16,0.31 2.02,1.29 2.18,2.49 l 0.89,6.85 c 0.15,1.19 -0.42,2.37 -1.47,2.96 l -4.31,2.49 c 0.6,5.37 1.06,10.77 1.41,16.18 l 4.66,1.71 c 1.13,0.41 1.9,1.46 1.95,2.66 l 0.29,6.91 c 0.05,1.2 -0.62,2.32 -1.71,2.83 l -4.49,2.08 c 0.12,5.41 0.12,10.84 0,16.27 l 4.47,2.09 c 1.08,0.52 1.75,1.63 1.71,2.84 l -0.32,6.9 c -0.05,1.2 -0.82,2.26 -1.95,2.67 l -4.61,1.67 c -0.36,5.41 -0.81,10.83 -1.42,16.25 l 4.22,2.44 c 1.04,0.61 1.61,1.78 1.46,2.97 l -0.91,6.86 c -0.17,1.19 -1.03,2.17 -2.19,2.48 l -4.66,1.24 c -0.83,5.36 -1.84,10.72 -2.92,16.08 l 4.01,2.81 c 0.98,0.69 1.45,1.91 1.19,3.08 l -1.5,6.75 c -0.26,1.18 -1.21,2.08 -2.39,2.29 l -4.88,0.85 c -1.29,5.24 -2.72,10.46 -4.25,15.68 l 3.81,3.21 c 0.93,0.78 1.29,2.03 0.93,3.18 l -2.09,6.59 c -0.36,1.15 -1.39,1.96 -2.58,2.06 l -4.97,0.43 c -1.76,5.16 -3.59,10.25 -5.55,15.27 l 3.5,3.51 c 0.85,0.85 1.1,2.13 0.64,3.25 l -2.65,6.38 c -0.46,1.11 -1.55,1.83 -2.76,1.83 h -4.89 c -2.21,5 -4.46,9.96 -6.86,14.82 l 3.09,3.7 c 0.77,0.93 0.92,2.23 0.35,3.29 l -3.19,6.13 c -0.56,1.07 -1.7,1.69 -2.9,1.59 l -4.85,-0.43 c -2.63,4.78 -5.39,9.47 -8.21,14.1 l 2.81,4.03 c 0.69,0.98 0.72,2.29 0.07,3.3 l -3.72,5.83 c -0.65,1.01 -1.84,1.53 -3.02,1.32 l -4.87,-0.85 c -3.03,4.51 -6.15,8.94 -9.35,13.3 l 2.46,4.29 c 0.6,1.04 0.52,2.35 -0.22,3.3 l -4.22,5.48 c -0.73,0.95 -1.97,1.37 -3.13,1.06 l -4.79,-1.29 c -3.4,4.23 -6.89,8.37 -10.46,12.43 l 2.09,4.51 c 0.51,1.09 0.31,2.38 -0.5,3.26 l -4.68,5.1 c -0.82,0.88 -2.08,1.19 -3.21,0.78 l -4.68,-1.71 c -3.76,3.91 -7.58,7.75 -11.5,11.48 l 1.69,4.67 c 0.41,1.13 0.1,2.4 -0.78,3.21 l -5.1,4.67 c -0.89,0.81 -2.18,1.01 -3.28,0.49 l -4.49,-2.1 c -4.08,3.56 -8.25,7.01 -12.48,10.38 l 1.3,4.85 c 0.3,1.16 -0.12,2.4 -1.07,3.13 l -5.49,4.2 c -0.96,0.73 -2.26,0.82 -3.3,0.21 l -4.4,-2.54 c -4.34,3.17 -8.77,6.23 -13.25,9.21 l 0.89,5.04 c 0.2,1.19 -0.32,2.38 -1.34,3.03 l -5.84,3.71 c -1.01,0.64 -2.31,0.61 -3.3,-0.08 l -4.22,-2.96 c -4.59,2.78 -9.24,5.44 -13.94,8.02 l 0.44,5.14 c 0.1,1.2 -0.53,2.35 -1.6,2.9 l -6.13,3.19 c -1.07,0.55 -2.37,0.41 -3.29,-0.37 l -3.95,-3.33 c -4.82,2.37 -9.67,4.64 -14.59,6.8 v 5.15 c 0,1.2 -0.73,2.29 -1.84,2.75 l -6.4,2.63 c -1.1,0.46 -2.38,0.21 -3.23,-0.65 l -3.62,-3.62 c -5.01,1.95 -10.06,3.81 -15.16,5.54 l -0.45,5.06 c -0.11,1.19 -0.93,2.21 -2.07,2.58 l -6.6,2.07 c -1.14,0.35 -2.4,-0.01 -3.17,-0.94 l -3.23,-3.84 c -5.18,1.51 -10.4,2.94 -15.66,4.23 l -0.87,4.88 c -0.2,1.19 -1.11,2.13 -2.28,2.39 l -6.76,1.49 c -1.17,0.26 -2.39,-0.22 -3.08,-1.2 l -2.85,-4.08 c -5.3,1.06 -10.64,1.97 -16,2.8 l -1.3,4.8 c -0.31,1.16 -1.28,2.02 -2.48,2.18 l -6.85,0.89 c -1.2,0.16 -2.36,-0.42 -2.97,-1.46 l -2.48,-4.31 c -5.38,0.59 -10.77,1.05 -16.18,1.4 l -1.71,4.67 c -0.41,1.13 -1.47,1.9 -2.67,1.95 l -6.91,0.29 c -1.2,0.05 -2.32,-0.63 -2.82,-1.72 l -2.09,-4.49 c -5.41,0.12 -10.83,0.12 -16.27,0 l -2.09,4.47 c -0.51,1.09 -1.62,1.76 -2.83,1.71 l -6.91,-0.31 c -1.2,-0.06 -2.25,-0.83 -2.67,-1.96 l -1.66,-4.61 c -5.42,-0.36 -10.84,-0.81 -16.25,-1.41 l -2.45,4.21 c -0.6,1.05 -1.77,1.62 -2.97,1.46 l -6.85,-0.91 c -1.19,-0.16 -2.17,-1.02 -2.48,-2.18 l -1.25,-4.67 c -5.36,-0.83 -10.71,-1.84 -16.08,-2.91 l -2.81,4.01 c -0.69,0.98 -1.9,1.45 -3.08,1.19 l -6.75,-1.51 c -1.17,-0.26 -2.07,-1.2 -2.29,-2.39 l -0.85,-4.88 c -5.23,-1.29 -10.46,-2.72 -15.67,-4.25 l -3.21,3.82 c -0.78,0.92 -2.03,1.28 -3.19,0.92 l -6.59,-2.09 c -1.14,-0.36 -1.96,-1.38 -2.06,-2.58 l -0.43,-4.97 c -5.15,-1.75 -10.24,-3.59 -15.26,-5.54 l -3.52,3.49 c -0.85,0.85 -2.13,1.11 -3.24,0.64 l -6.39,-2.65 c -1.11,-0.46 -1.83,-1.55 -1.83,-2.75 l 0.01,-4.9 c -5,-2.2 -9.96,-4.46 -14.83,-6.86 l -3.7,3.09 c -0.93,0.78 -2.23,0.92 -3.29,0.36 l -6.12,-3.2 c -1.08,-0.56 -1.7,-1.7 -1.59,-2.9 l 0.43,-4.86 c -4.79,-2.62 -9.48,-5.37 -14.11,-8.19 l -4.02,2.8 c -0.99,0.7 -2.29,0.72 -3.31,0.07 l -5.82,-3.72 c -1.02,-0.65 -1.54,-1.84 -1.33,-3.03 l 0.86,-4.85 c -4.52,-3.03 -8.94,-6.16 -13.3,-9.36 l -4.3,2.47 c -1.04,0.6 -2.34,0.51 -3.3,-0.22 l -5.48,-4.22 c -0.95,-0.73 -1.36,-1.97 -1.06,-3.13 l 1.3,-4.8 c -4.23,-3.41 -8.38,-6.89 -12.43,-10.46 l -4.52,2.09 c -1.09,0.51 -2.38,0.31 -3.26,-0.5 l -5.09,-4.68 c -0.89,-0.81 -1.2,-2.08 -0.79,-3.21 l 1.71,-4.68 c -3.9,-3.76 -7.74,-7.58 -11.47,-11.49 l -4.68,1.69 c -1.13,0.41 -2.39,0.1 -3.2,-0.79 l -4.67,-5.1 c -0.81,-0.89 -1.01,-2.18 -0.5,-3.27 l 2.1,-4.49 c -3.56,-4.09 -7,-8.26 -10.38,-12.48 l -4.84,1.29 c -1.17,0.31 -2.41,-0.11 -3.14,-1.07 l -4.2,-5.49 c -0.56,-0.74 -0.61,-1.66 -0.39,-2.53 -63.31,42.81 -114.67,77.18 -123.47,82.07 -25.41,14.06 -59.53,-15.36 -59.53,-15.36 l 11.17,27.2 -110.39,73.26 c 9.73,25.19 10.59,66.77 -26.49,97.5 -37.07,30.74 -119.84,33.04 -193.43,85.38 -73.58,52.33 -129.41,107.38 -129.41,107.38 l 37,-1.09 c 57.85,102.1 14.62,166.96 14.62,166.96 l 12.85,14.54 c 25.08,-70.02 25.91,-96.52 -3.69,-197.82 l 31.01,43.56 -11.85,-52.62 21.13,28.8 c 1.73,-71.6 123.29,-141.33 123.29,-141.33 -36.1,36.86 -30.5,105.55 -21.96,148.39 8.55,42.85 -29.19,99.56 -29.19,99.56 0,0 0.6,16.48 13.07,17.52 12.47,1.04 37.93,-20.57 45.56,-26.3 7.63,-5.73 16.03,4.49 22.18,5.28 6.15,0.78 15.69,-7.26 24.14,-7.49 8.46,-0.23 8.34,20.68 19.06,21.75 5.19,0.51 13.56,3.95 20.82,7.35 7.18,3.38 9.06,12.74 3.7,18.6 l -30.47,33.25 c 1.79,1.73 8.26,12.5 8.26,12.5 -2.51,7.94 2.01,28.57 2.01,28.57 36.31,23.13 50.96,52.21 50.96,52.21 l 49.96,-25.49 29.56,14.88 c -17.12,18.45 -37.02,46.84 -51.85,88.6 -32.14,90.48 -58.65,100.7 -108.92,129 51.56,-36.03 70.18,-80.17 70.18,-80.17 -28.73,37.44 -79.34,53.99 -79.34,53.99 24.05,-9.83 70.04,-77.88 70.04,-77.88 -40.45,39.55 -112.98,57.31 -112.98,57.31 74.55,-35.16 142.57,-130.56 142.57,-130.56 0,0 -30.74,8.89 -66.05,17.48 -35.3,8.61 -81.78,32.29 -81.78,32.29 0,0 56.37,-42.08 59.27,-47.55 2.34,-4.42 -15.49,-4.66 -22.53,-4.59 l -112.38,71.48 95.31,-71.93 c -10.86,-4.04 -17.41,-29.89 -17.41,-29.89 l -3.33,0.78 -125.84,87.31 c 4.5,58.58 42.96,120.04 146.7,131.56 -74.33,-4.13 -94.02,-15.41 -131.58,-40.11 -37.57,-24.69 -74.27,-115.82 -79.68,-164.86 l 46.85,-32.12 c -1.78,-0.88 -3.72,-1.74 -5.69,-2.36 -6.23,-1.97 -41.22,-0.25 -42.19,-0.85 -0.98,-0.6 -28.59,-5.27 -85.14,-26.95 -56.55,-21.69 -98.76,-86.83 -98.76,-86.83 73.53,59.93 133.1,66.57 133.1,66.57 0,0 -74.02,-115.36 -81.74,-127.7 -7.74,-12.34 24.39,-21.95 11.98,-19.48 -10.66,2.12 -44.65,-4.44 -54.08,-6.34 12.37,1.05 35.13,-16.53 35.13,-16.53 0,0 1.29,-7.73 1.97,-9.85 0.66,-2.11 -16.32,-34.83 -16.32,-34.83 0,0 -6.23,-6.05 -24.35,-9.46 -18.12,-3.41 -23.51,-12.1 -23.51,-12.1 13.19,2.43 29.67,1.83 29.67,1.83 l 10.73,-55.94 -104.52,25.08 c 0,0 49.18,-19.34 53.53,-33.09 4.35,-13.75 25.52,-29.15 25.52,-29.15 -25.67,-3.47 -99.06,15.18 -99.06,15.18 15.95,-35.67 82.72,-51.77 82.72,-51.77 l -95.54,-6.98 175.4,-24.75 -98.81,-15 81.52,-14.91 c 0,0 -77.84,-12.63 -103.19,-18.32 l 61.59,19.5 c 0,0 -40.08,-4.16 -66.61,-11.01 -26.54,-6.85 -85.91,-20.22 -85.91,-20.22 l -24.12,-2.2 c 0,0 106.49,59.31 125.86,60.01 0,0 -29.71,3.79 -56.24,-3.06 -26.54,-6.85 -52.17,-16.52 -52.17,-16.52 0,0 -37.51,-21.19 -28.37,11.19 9.14,32.37 47.08,174.7 144.45,303.28 0,0 -237.3,-272.18 -213.29,-416.62 24.01,-144.44 202.4,-149.24 202.4,-149.24 0,0 37.46,-32.31 79.94,-69.46 -56.53,-36.46 -177.08,-100.25 -196.48,-112.5 -19.72,-12.45 -23.96,-45.6 40.4,-43.07 44.82,1.77 78.76,15.14 95.26,23.1 l 239.08,-208.21 -15.09,-26.52 -1.11,0.58 c -1.07,0.55 -2.37,0.41 -3.29,-0.36 l -3.95,-3.33 c -4.82,2.37 -9.67,4.64 -14.58,6.79 l -0.01,5.16 c 0,1.2 -0.73,2.28 -1.85,2.74 l -6.38,2.64 c -1.12,0.46 -2.4,0.2 -3.25,-0.65 l -3.61,-3.62 c -5.02,1.94 -10.06,3.81 -15.15,5.54 l -0.46,5.05 c -0.1,1.2 -0.92,2.22 -2.07,2.58 l -6.6,2.07 c -1.15,0.36 -2.4,-0.01 -3.17,-0.93 l -3.22,-3.85 c -5.2,1.52 -10.41,2.95 -15.67,4.24 l -0.87,4.88 c -0.21,1.19 -1.11,2.12 -2.29,2.38 l -6.75,1.49 c -1.18,0.26 -2.39,-0.21 -3.08,-1.2 l -2.85,-4.07 c -5.3,1.05 -10.64,1.97 -15.99,2.8 l -1.3,4.8 c -0.31,1.16 -1.3,2.02 -2.49,2.17 l -6.86,0.9 c -1.19,0.15 -2.36,-0.42 -2.97,-1.47 l -2.48,-4.3 c -5.37,0.59 -10.77,1.05 -16.18,1.4 l -1.71,4.66 c -0.41,1.13 -1.46,1.9 -2.66,1.95 l -6.91,0.3 c -1.2,0.04 -2.32,-0.63 -2.83,-1.72 l -2.08,-4.49 c -5.42,0.12 -10.84,0.12 -16.27,0 l -2.09,4.46 c -0.52,1.09 -1.63,1.77 -2.83,1.71 l -6.9,-0.31 c -1.21,-0.05 -2.26,-0.82 -2.67,-1.95 l -1.68,-4.61 c -5.41,-0.36 -10.82,-0.81 -16.25,-1.41 l -2.44,4.21 c -0.61,1.04 -1.78,1.62 -2.97,1.46 l -6.86,-0.91 c -1.19,-0.16 -2.16,-1.02 -2.48,-2.19 l -1.24,-4.66 c -5.36,-0.83 -10.72,-1.84 -16.07,-2.91 l -2.81,4 c -0.7,0.99 -1.92,1.45 -3.09,1.2 l -6.75,-1.51 c -1.17,-0.26 -2.08,-1.2 -2.28,-2.39 l -0.86,-4.88 c -5.24,-1.29 -10.46,-2.72 -15.68,-4.25 l -3.21,3.81 c -0.77,0.92 -2.03,1.29 -3.17,0.92 l -6.59,-2.08 c -1.16,-0.37 -1.97,-1.39 -2.07,-2.58 l -0.43,-4.97 c -5.15,-1.76 -10.25,-3.59 -15.27,-5.55 l -3.51,3.5 c -0.85,0.85 -2.13,1.1 -3.25,0.64 l -6.37,-2.66 c -1.12,-0.46 -1.84,-1.54 -1.84,-2.75 v -4.89 c -5,-2.2 -9.96,-4.46 -14.82,-6.86 l -3.7,3.09 c -0.92,0.77 -2.22,0.91 -3.29,0.35 l -6.13,-3.19 c -1.06,-0.56 -1.69,-1.7 -1.59,-2.9 l 0.43,-4.86 c -4.78,-2.62 -9.46,-5.37 -14.1,-8.2 l -4.03,2.81 c -0.98,0.69 -2.28,0.71 -3.3,0.07 l -5.83,-3.72 c -1.01,-0.65 -1.53,-1.85 -1.32,-3.03 l 0.86,-4.86 c -4.52,-3.02 -8.95,-6.15 -13.31,-9.36 l -4.29,2.47 c -1.04,0.6 -2.35,0.51 -3.29,-0.22 l -5.49,-4.21 c -0.95,-0.74 -1.37,-1.97 -1.06,-3.14 l 1.29,-4.79 c -4.23,-3.41 -8.37,-6.89 -12.43,-10.46 l -4.5,2.09 c -1.09,0.5 -2.38,0.3 -3.27,-0.51 l -5.09,-4.67 c -0.89,-0.82 -1.2,-2.09 -0.78,-3.22 l 1.7,-4.67 c -3.91,-3.76 -7.75,-7.58 -11.48,-11.49 l -4.66,1.69 c -1.14,0.41 -2.41,0.09 -3.22,-0.8 l -4.67,-5.1 c -0.81,-0.89 -1,-2.18 -0.49,-3.26 l 2.1,-4.5 c -3.56,-4.08 -7.01,-8.25 -10.38,-12.47 l -4.85,1.29 c -1.16,0.3 -2.39,-0.12 -3.12,-1.07 l -4.21,-5.49 c -0.74,-0.96 -0.81,-2.26 -0.21,-3.3 l 2.54,-4.39 c -3.17,-4.35 -6.23,-8.78 -9.21,-13.25 l -5.04,0.88 c -1.19,0.2 -2.38,-0.33 -3.02,-1.34 l -3.72,-5.84 c -0.64,-1.01 -0.61,-2.32 0.08,-3.3 l 2.96,-4.22 c -2.77,-4.59 -5.44,-9.24 -8.02,-13.94 l -5.14,0.44 c -1.19,0.1 -2.35,-0.53 -2.89,-1.59 l -3.19,-6.14 c -0.55,-1.07 -0.42,-2.37 0.36,-3.29 l 3.33,-3.95 c -2.38,-4.82 -4.64,-9.67 -6.8,-14.58 l -5.15,-0.01 c -1.2,0 -2.28,-0.73 -2.74,-1.84 l -2.64,-6.4 c -0.46,-1.1 -0.2,-2.38 0.65,-3.24 l 3.62,-3.61 c -1.94,-5.02 -3.81,-10.06 -5.54,-15.16 l -5.06,-0.45 c -1.19,-0.1 -2.21,-0.92 -2.57,-2.07 l -2.08,-6.6 c -0.35,-1.15 0.01,-2.4 0.93,-3.17 l 3.85,-3.22 c -1.51,-5.2 -2.94,-10.41 -4.23,-15.67 l -4.88,-0.87 c -1.18,-0.21 -2.13,-1.12 -2.38,-2.29 l -1.5,-6.75 c -0.25,-1.18 0.22,-2.39 1.2,-3.08 l 4.08,-2.84 c -1.06,-5.32 -1.97,-10.65 -2.8,-16.01 l -4.8,-1.29 c -1.16,-0.31 -2.02,-1.3 -2.17,-2.49 l -0.9,-6.85 c -0.16,-1.2 0.42,-2.37 1.47,-2.97 l 4.3,-2.48 c -0.58,-5.38 -1.04,-10.78 -1.4,-16.19 l -4.66,-1.7 c -1.13,-0.41 -1.91,-1.47 -1.96,-2.67 l -0.29,-6.91 c -0.05,-1.21 0.63,-2.32 1.72,-2.83 l 4.49,-2.09 c -0.11,-5.41 -0.12,-10.83 0,-16.26 l -4.47,-2.1 c -1.08,-0.5 -1.76,-1.62 -1.71,-2.82 l 0.31,-6.91 c 0.06,-1.2 0.83,-2.25 1.97,-2.66 l 4.61,-1.68 c 0.36,-5.41 0.81,-10.83 1.4,-16.25 l -4.22,-2.44 c -1.03,-0.61 -1.61,-1.78 -1.45,-2.97 l 0.91,-6.85 c 0.16,-1.2 1.02,-2.17 2.18,-2.48 l 4.66,-1.25 c 0.84,-5.36 1.85,-10.72 2.92,-16.07 l -4,-2.82 c -0.99,-0.69 -1.46,-1.91 -1.19,-3.08 l 1.5,-6.75 c 0.26,-1.18 1.2,-2.08 2.39,-2.28 l 4.88,-0.86 c 1.29,-5.23 2.72,-10.46 4.25,-15.67 l -3.81,-3.22 c -0.92,-0.78 -1.28,-2.03 -0.92,-3.17 l 2.08,-6.59 c 0.37,-1.15 1.38,-1.97 2.59,-2.07 l 4.97,-0.43 c 1.74,-5.15 3.58,-10.25 5.53,-15.27 l -3.49,-3.51 c -0.85,-0.85 -1.11,-2.13 -0.64,-3.24 l 2.65,-6.39 c 0.47,-1.1 1.55,-1.84 2.75,-1.83 h 4.9 c 2.2,-5 4.46,-9.96 6.86,-14.82 l -3.09,-3.7 c -0.78,-0.93 -0.91,-2.22 -0.36,-3.29 l 3.2,-6.13 c 0.55,-1.06 1.71,-1.7 2.9,-1.59 l 4.85,0.43 c 2.64,-4.78 5.38,-9.46 8.2,-14.1 l -2.8,-4.02 c -0.69,-0.99 -0.72,-2.29 -0.07,-3.3 l 3.72,-5.83 c 0.65,-1.02 1.84,-1.54 3.03,-1.33 l 4.85,0.86 c 3.03,-4.51 6.16,-8.95 9.37,-13.3 l -2.47,-4.3 c -0.61,-1.05 -0.52,-2.34 0.21,-3.3 l 4.22,-5.48 c 0.74,-0.95 1.98,-1.37 3.14,-1.05 l 4.79,1.28 c 3.41,-4.22 6.89,-8.37 10.46,-12.43 l -2.09,-4.51 c -0.51,-1.08 -0.31,-2.37 0.51,-3.26 l 4.68,-5.1 c 0.81,-0.88 2.08,-1.19 3.2,-0.78 l 4.68,1.71 c 3.76,-3.91 7.58,-7.74 11.49,-11.48 l -1.69,-4.66 c -0.41,-1.14 -0.09,-2.41 0.79,-3.22 l 5.1,-4.66 c 0.89,-0.81 2.18,-1.01 3.27,-0.5 l 4.5,2.1 c 4.08,-3.57 8.25,-7 12.48,-10.37 l -1.29,-4.86 c -0.32,-1.16 0.1,-2.4 1.06,-3.12 l 5.49,-4.21 c 0.96,-0.73 2.26,-0.81 3.3,-0.22 l 4.39,2.55 c 4.35,-3.17 8.77,-6.23 13.26,-9.21 l -0.88,-5.04 c -0.22,-1.19 0.31,-2.38 1.33,-3.02 l 5.84,-3.71 c 1.01,-0.65 2.32,-0.62 3.3,0.07 l 4.22,2.95 c 4.58,-2.77 9.23,-5.44 13.94,-8 l -0.44,-5.15 c -0.11,-1.2 0.53,-2.34 1.59,-2.9 l 6.15,-3.18 c 1.06,-0.55 2.36,-0.41 3.28,0.36 l 3.95,3.33 c 4.82,-2.38 9.67,-4.64 14.58,-6.8 l 0.01,-5.15 c 0,-1.2 0.72,-2.28 1.84,-2.74 l 6.39,-2.65 c 1.12,-0.46 2.4,-0.19 3.25,0.66 l 3.61,3.62 c 5.01,-1.95 10.06,-3.81 15.16,-5.54 l 0.44,-5.06 c 0.11,-1.2 0.93,-2.21 2.08,-2.57 l 6.6,-2.07 c 1.15,-0.37 2.4,0.01 3.17,0.92 l 3.22,3.85 c 5.19,-1.51 10.41,-2.94 15.67,-4.23 l 0.87,-4.88 c 0.21,-1.18 1.11,-2.13 2.29,-2.38 l 6.75,-1.5 c 1.17,-0.25 2.39,0.22 3.08,1.2 l 2.85,4.08 c 5.3,-1.06 10.64,-1.98 15.99,-2.8 l 1.3,-4.8 c 0.31,-1.16 1.29,-2.02 2.49,-2.18 l 6.86,-0.89 c 1.19,-0.15 2.36,0.42 2.96,1.47 l 2.48,4.3 c 5.38,-0.59 10.77,-1.05 16.19,-1.4 l 1.7,-4.66 c 0.42,-1.13 1.47,-1.9 2.67,-1.95 l 6.91,-0.3 c 1.2,-0.05 2.31,0.63 2.82,1.72 l 2.09,4.48 c 5.41,-0.11 10.83,-0.11 16.27,0.01 l 2.09,-4.47 c 0.51,-1.08 1.63,-1.76 2.83,-1.71 l 6.91,0.32 c 1.2,0.04 2.25,0.82 2.66,1.95 l 1.67,4.61 c 5.42,0.36 10.83,0.81 16.25,1.41 l 2.45,-4.21 c 0.6,-1.04 1.77,-1.62 2.96,-1.46 l 6.86,0.91 c 1.19,0.15 2.17,1.02 2.49,2.19 l 1.24,4.65 c 5.36,0.83 10.72,1.85 16.07,2.92 l 2.81,-4 c 0.7,-0.99 1.92,-1.45 3.09,-1.19 l 6.75,1.5 c 1.17,0.26 2.07,1.2 2.28,2.39 l 0.85,4.88 c 5.24,1.29 10.46,2.72 15.69,4.25 l 3.21,-3.81 c 0.77,-0.92 2.02,-1.29 3.17,-0.92 l 6.6,2.08 c 1.14,0.36 1.96,1.39 2.06,2.58 l 0.44,4.97 c 5.14,1.76 10.24,3.59 15.26,5.55 l 3.5,-3.5 c 0.85,-0.85 2.14,-1.1 3.25,-0.65 l 6.38,2.66 c 1.12,0.46 1.84,1.54 1.84,2.76 v 4.89 c 5,2.2 9.96,4.46 14.81,6.86 l 3.71,-3.09 c 0.92,-0.77 2.22,-0.91 3.29,-0.35 l 6.13,3.19 c 1.06,0.56 1.69,1.7 1.58,2.9 l -0.43,4.85 c 4.79,2.63 9.47,5.38 14.1,8.21 l 4.03,-2.82 c 0.98,-0.68 2.29,-0.71 3.31,-0.06 l 5.82,3.73 c 1.01,0.64 1.54,1.83 1.33,3.01 l -0.86,4.87 c 4.52,3.02 8.95,6.15 13.31,9.35 l 4.28,-2.46 c 1.05,-0.6 2.35,-0.52 3.3,0.22 l 5.48,4.21 c 0.96,0.74 1.38,1.98 1.07,3.14 l -1.29,4.78 c 4.22,3.41 8.37,6.9 12.42,10.47 l 4.51,-2.1 c 1.1,-0.49 2.38,-0.3 3.27,0.51 l 5.09,4.68 c 0.89,0.82 1.19,2.08 0.78,3.21 l -1.7,4.68 c 3.91,3.76 7.75,7.58 11.47,11.49 l 4.68,-1.69 c 1.13,-0.41 2.4,-0.09 3.21,0.8 l 4.66,5.09 c 0.82,0.89 1.01,2.18 0.5,3.27 l -2.09,4.5 c 3.55,4.08 7,8.25 10.37,12.48 l 4.85,-1.3 c 1.16,-0.3 2.39,0.12 3.12,1.07 l 4.2,5.49 c 0.74,0.96 0.82,2.26 0.22,3.3 l -2.54,4.4 c 3.17,4.34 6.23,8.77 9.21,13.25 l 5.04,-0.89 c 1.18,-0.21 2.38,0.32 3.03,1.34 l 3.7,5.84 c 0.65,1.01 0.61,2.31 -0.07,3.3 l -2.96,4.22 c 2.77,4.59 5.44,9.24 8.02,13.94 l 5.13,-0.44 c 1.2,-0.1 2.35,0.53 2.9,1.59 l 3.19,6.14 c 0.55,1.07 0.41,2.37 -0.36,3.29 l -3.32,3.95 c 2.36,4.82 4.62,9.67 6.78,14.58 l 5.16,0.01 c 1.2,0 2.28,0.73 2.74,1.84 l 2.64,6.4 c 0.46,1.1 0.21,2.39 -0.64,3.24 l -3.63,3.61 c 1.95,5.01 3.81,10.06 5.54,15.16 l 5.05,0.45 c 1.2,0.1 2.22,0.92 2.58,2.07 l 2.07,6.6 c 0.36,1.14 0,2.4 -0.93,3.17 l -3.85,3.22 c 1.52,5.19 2.95,10.41 4.24,15.67 l 4.88,0.87 c 1.18,0.2 2.12,1.11 2.39,2.28 l 1.48,6.76 c 0.26,1.17 -0.22,2.39 -1.2,3.08 l -4.07,2.85 c 1.05,5.3 1.97,10.63 2.8,15.99 l 4.79,1.3 c 1.17,0.32 2.03,1.29 2.18,2.48 l 0.9,6.87 c 0.16,1.19 -0.42,2.36 -1.46,2.96 l -4.31,2.48 c 0.58,5.38 1.04,10.77 1.4,16.19 l 4.66,1.7 c 1.13,0.42 1.9,1.46 1.96,2.67 l 0.29,6.91 c 0.05,1.2 -0.64,2.31 -1.72,2.82 l -1.38,0.64 110.98,70.99 c 10.22,-0.16 20.63,1.21 30.91,4.48 51.21,16.21 79.57,70.85 63.36,122.06 -3.67,11.62 -9.42,21.98 -16.56,30.99 33.53,21.05 69.96,44.81 78.19,53.68 16.04,17.31 9.85,36.87 -1.29,42.65 -11.14,5.79 -98.99,-14.46 -98.99,-14.46 0,0 21.21,427.35 41.05,498.8 0,0 9.14,35.47 25.85,26.8 l 137.99,-88.93 c -0.96,-0.12 -1.84,-0.59 -2.3,-1.47 l -3.18,-6.14 c -0.56,-1.06 -0.41,-2.36 0.36,-3.29 l 3.33,-3.95 c -2.37,-4.81 -4.64,-9.67 -6.8,-14.58 l -5.14,-0.01 c -1.21,0 -2.3,-0.72 -2.76,-1.84 l -2.63,-6.39 c -0.46,-1.11 -0.21,-2.39 0.65,-3.24 l 3.62,-3.62 c -1.95,-5.01 -3.8,-10.06 -5.53,-15.16 l -5.06,-0.44 c -1.2,-0.11 -2.22,-0.93 -2.58,-2.07 l -2.07,-6.6 c -0.36,-1.15 0.01,-2.4 0.93,-3.18 l 3.85,-3.22 c -1.52,-5.19 -2.94,-10.41 -4.23,-15.67 l -4.89,-0.87 c -1.19,-0.21 -2.12,-1.11 -2.39,-2.29 l -1.48,-6.74 c -0.27,-1.18 0.21,-2.4 1.2,-3.09 l 4.07,-2.85 c -1.05,-5.29 -1.97,-10.63 -2.79,-15.99 l -4.81,-1.3 c -1.16,-0.31 -2.02,-1.29 -2.17,-2.49 l -0.9,-6.85 c -0.16,-1.19 0.43,-2.37 1.46,-2.97 l 4.32,-2.48 c -0.6,-5.37 -1.06,-10.77 -1.41,-16.18 l -4.67,-1.71 c -1.12,-0.41 -1.89,-1.47 -1.94,-2.67 l -0.29,-6.9 c -0.06,-1.21 0.62,-2.32 1.71,-2.83 l 4.49,-2.09 c -0.12,-5.41 -0.12,-10.83 0,-16.26 l -4.46,-2.1 c -1.1,-0.51 -1.77,-1.63 -1.71,-2.83 l 0.31,-6.91 c 0.05,-1.2 0.82,-2.25 1.95,-2.66 l 4.61,-1.67 c 0.36,-5.42 0.81,-10.83 1.42,-16.25 l -4.22,-2.45 c -1.05,-0.6 -1.61,-1.77 -1.46,-2.96 l 0.91,-6.86 c 0.16,-1.19 1.02,-2.17 2.18,-2.48 l 4.67,-1.25 c 0.83,-5.35 1.83,-10.72 2.92,-16.07 l -4.01,-2.81 c -0.98,-0.69 -1.46,-1.91 -1.2,-3.09 l 1.51,-6.74 c 0.26,-1.18 1.21,-2.08 2.39,-2.29 l 4.88,-0.85 c 1.29,-5.24 2.73,-10.46 4.25,-15.68 l -3.81,-3.21 c -0.93,-0.78 -1.29,-2.03 -0.93,-3.18 l 2.09,-6.59 c 0.36,-1.15 1.38,-1.96 2.58,-2.07 l 4.97,-0.43 c 1.75,-5.15 3.59,-10.24 5.55,-15.26 l -3.5,-3.51 c -0.85,-0.85 -1.1,-2.14 -0.64,-3.25 l 2.65,-6.38 c 0.46,-1.11 1.55,-1.83 2.75,-1.83 h 4.9 c 2.2,-5 4.46,-9.97 6.87,-14.82 l -3.1,-3.71 c -0.77,-0.92 -0.92,-2.22 -0.36,-3.29 l 3.2,-6.12 c 0.56,-1.07 1.7,-1.7 2.9,-1.59 l 4.86,0.43 c 2.62,-4.79 5.38,-9.47 8.19,-14.1 l -2.8,-4.03 c -0.69,-0.98 -0.72,-2.29 -0.07,-3.3 l 3.72,-5.83 c 0.65,-1.01 1.85,-1.54 3.03,-1.33 l 4.85,0.86 c 3.04,-4.52 6.15,-8.95 9.37,-13.31 l -2.48,-4.28 c -0.59,-1.05 -0.5,-2.35 0.23,-3.3 l 4.22,-5.48 c 0.73,-0.95 1.96,-1.37 3.12,-1.06 l 4.8,1.29 c 3.41,-4.23 6.88,-8.38 10.46,-12.43 l -2.09,-4.51 c -0.51,-1.09 -0.31,-2.38 0.51,-3.27 l 4.67,-5.09 c 0.81,-0.88 2.08,-1.19 3.22,-0.78 l 4.66,1.7 c 3.76,-3.9 7.58,-7.74 11.51,-11.47 l -1.7,-4.67 c -0.41,-1.13 -0.1,-2.4 0.79,-3.21 l 5.11,-4.67 c 0.89,-0.81 2.17,-1.01 3.27,-0.5 l 4.48,2.1 c 4.08,-3.56 8.26,-7 12.48,-10.38 l -1.29,-4.84 c -0.31,-1.17 0.12,-2.4 1.07,-3.13 l 5.49,-4.2 c 0.96,-0.74 2.26,-0.82 3.3,-0.22 l 4.39,2.54 c 4.36,-3.17 8.78,-6.23 13.25,-9.2 l -0.88,-5.05 c -0.2,-1.18 0.33,-2.38 1.34,-3.02 l 5.83,-3.71 c 1.03,-0.64 2.33,-0.62 3.31,0.08 l 4.21,2.95 c 4.6,-2.77 9.25,-5.44 13.96,-8.01 l -0.44,-5.14 c -0.11,-1.2 0.51,-2.35 1.59,-2.9 l 6.13,-3.19 c 1.08,-0.55 2.36,-0.41 3.29,0.37 l 3.95,3.32 c 4.81,-2.37 9.67,-4.64 14.59,-6.8 v -5.14 c 0.01,-1.21 0.73,-2.29 1.84,-2.75 l 6.39,-2.63 c 1.11,-0.46 2.39,-0.21 3.24,0.64 l 3.62,3.62 c 5.01,-1.95 10.06,-3.81 15.16,-5.54 l 0.45,-5.05 c 0.11,-1.2 0.92,-2.21 2.07,-2.58 l 6.59,-2.07 c 1.15,-0.36 2.4,0.01 3.18,0.93 l 3.22,3.84 c 5.19,-1.51 10.41,-2.94 15.67,-4.23 l 0.87,-4.88 c 0.21,-1.18 1.12,-2.12 2.29,-2.38 l 6.75,-1.49 c 1.18,-0.26 2.39,0.22 3.08,1.2 l 2.84,4.07 c 5.31,-1.06 10.65,-1.97 16.01,-2.79 l 1.29,-4.8 c 0.31,-1.17 1.3,-2.03 2.49,-2.18 l 6.85,-0.89 c 1.19,-0.16 2.37,0.41 2.97,1.46 l 2.48,4.3 c 5.37,-0.58 10.77,-1.05 16.18,-1.4 l 1.71,-4.66 c 0.41,-1.13 1.47,-1.9 2.67,-1.95 l 6.91,-0.29 c 1.2,-0.05 2.32,0.63 2.83,1.71 l 2.09,4.49 c 5.41,-0.12 10.83,-0.12 16.26,0 l 2.09,-4.46 c 0.51,-1.09 1.63,-1.76 2.83,-1.71 l 6.91,0.31 c 1.2,0.05 2.25,0.82 2.66,1.96 l 1.68,4.61 c 5.41,0.35 10.83,0.8 16.25,1.41 l 2.44,-4.22 c 0.6,-1.04 1.78,-1.61 2.97,-1.45 l 6.85,0.91 c 1.19,0.16 2.17,1.02 2.48,2.18 l 1.25,4.66 c 5.35,0.83 10.72,1.84 16.08,2.92 l 2.81,-4.01 c 0.69,-0.98 1.9,-1.45 3.08,-1.19 l 6.74,1.5 c 1.19,0.26 2.08,1.21 2.29,2.39 l 0.86,4.88 c 5.23,1.29 10.46,2.73 15.67,4.25 l 3.22,-3.81 c 0.78,-0.92 2.03,-1.28 3.17,-0.92 l 6.59,2.09 c 1.15,0.36 1.96,1.38 2.07,2.58 l 0.43,4.96 c 5.15,1.75 10.25,3.59 15.27,5.55 l 3.51,-3.5 c 0.85,-0.85 2.13,-1.1 3.24,-0.64 l 6.39,2.66 c 1.1,0.46 1.83,1.55 1.83,2.75 v 4.89 c 5,2.2 9.96,4.46 14.82,6.87 l 3.7,-3.1 c 0.93,-0.77 2.22,-0.91 3.29,-0.35 l 6.12,3.2 c 1.07,0.55 1.7,1.7 1.6,2.9 l -0.43,4.85 c 4.78,2.63 9.47,5.38 14.1,8.2 l 4.02,-2.81 c 0.99,-0.69 2.29,-0.71 3.3,-0.07 l 5.83,3.73 c 1.02,0.64 1.55,1.84 1.33,3.03 l -0.86,4.84 c 4.52,3.04 8.95,6.16 13.31,9.37 l 4.29,-2.47 c 1.04,-0.6 2.34,-0.51 3.3,0.22 l 5.48,4.22 c 0.95,0.73 1.37,1.97 1.05,3.13 l -1.29,4.79 c 4.23,3.4 8.38,6.89 12.44,10.47 l 4.51,-2.1 c 1.08,-0.5 2.37,-0.3 3.26,0.51 l 5.1,4.68 c 0.88,0.81 1.19,2.08 0.78,3.21 l -1.71,4.67 c 3.91,3.76 7.74,7.58 11.47,11.5 l 4.68,-1.69 c 1.12,-0.41 2.39,-0.1 3.2,0.79 l 4.67,5.1 c 0.81,0.89 1.01,2.18 0.5,3.27 l -2.1,4.49 c 3.57,4.08 7.01,8.25 10.38,12.47 l 4.85,-1.28 c 1.16,-0.31 2.4,0.11 3.13,1.06 l 4.2,5.49 c 0.73,0.96 0.81,2.26 0.21,3.3 l -2.53,4.39 c 3.16,4.35 6.22,8.78 9.19,13.26 l 5.05,-0.88 c 1.18,-0.21 2.38,0.32 3.02,1.33 l 3.71,5.84 c 0.65,1.02 0.62,2.32 -0.08,3.31 l -2.95,4.21 c 2.78,4.59 5.44,9.24 8.01,13.95 l 5.15,-0.45 c 1.2,-0.1 2.34,0.53 2.9,1.6 l 3.18,6.13 c 0.56,1.07 0.41,2.37 -0.36,3.29 l -3.32,3.95 c 2.36,4.82 4.63,9.67 6.79,14.59 l 5.14,0.01 c 1.21,0 2.29,0.72 2.75,1.84 l 2.65,6.39 c 0.45,1.11 0.19,2.39 -0.66,3.24 l -3.62,3.61 c 1.95,5.02 3.81,10.06 5.54,15.16 l 5.05,0.45 c 1.2,0.11 2.22,0.93 2.58,2.07 l 2.07,6.6 c 0.36,1.15 -0.01,2.4 -0.93,3.17 l -3.84,3.23 c 1.51,5.18 2.94,10.4 4.23,15.66 l 4.88,0.87 c 1.19,0.22 2.13,1.11 2.38,2.29 l 1.5,6.75 c 0.25,1.18 -0.22,2.4 -1.21,3.08"/>
      <path id="path52" style="fill:#1a1817;fill-opacity:1;fill-rule:nonzero;stroke:none" d="m 2008.21,2003.27 180.35,121.52 25.77,-59.05 123.18,168.22 133.4,90.62 154.32,138.67 -50.76,-158.1 213.89,153.94 249.53,-266.53 378.17,-189.29 h -581.45 -826.4"/>
    </g>
  </g>
</svg>